<svg version="1.1" xmlns="http://www.w3.org/2000/svg" xmlns:xlink="http://www.w3.org/1999/xlink" width="268.09903" height="84.81163" viewBox="0,0,268.09903,84.81163"><g transform="translate(-188.5495,-138.70536)"><g data-paper-data="{&quot;isPaintingLayer&quot;:true}" fill-rule="nonzero" stroke="none" stroke-linecap="butt" stroke-linejoin="miter" stroke-miterlimit="10" stroke-dasharray="" stroke-dashoffset="0" style="mix-blend-mode: normal"><path d="M215.69695,175.90351c0,-1.11537 0.74358,-1.85896 1.85896,-1.85896h45.73032c0.37179,0 1.11537,0 1.48716,0.37179c0.37179,0.37179 0.74358,0.74358 0.74358,1.48716v10.78194c0,1.11537 -0.74358,1.85896 -1.85896,1.85896h-45.73032c-0.37179,0 -1.11537,0 -1.48716,-0.37179c-0.37179,-0.37179 -0.74358,-0.74358 -0.74358,-1.48716z" fill="#999999" stroke-width="1"/><path d="M263.28622,186.68546v-10.78194h-45.73032v10.78194h45.73032M267.00413,186.68546c0,1.85896 -1.48716,3.71791 -3.71791,3.71791h-45.73032c-0.74358,0 -1.85896,-0.37179 -2.60254,-1.11537c-0.74358,-0.74358 -1.11537,-1.48716 -1.11537,-2.60254v-10.78194c0,-1.85896 1.48716,-3.71791 3.71791,-3.71791h45.73032c0.74358,0 1.85896,0.37179 2.60254,1.11537c0.74358,0.74358 1.11537,1.48716 1.11537,2.60254z" fill="#414042" stroke-width="1"/><path d="M261.42726,165.12157c0,-1.11537 0.74358,-1.85896 1.85896,-1.85896h148.71647c0.37179,0 1.11537,0 1.48716,0.37179l15.98702,15.98702c0,0 0.37179,0.74358 0.37179,1.48716v0c0,0.37179 0,1.11537 -0.74358,1.48716l-15.98702,15.24344c0,0 -0.74358,0.37179 -1.48716,0.37179h-148.71647c-0.37179,0 -1.11537,0 -1.48716,-0.37179c-0.37179,-0.37179 -0.74358,-0.74358 -0.74358,-1.48716v-31.23046z" fill="#f2f2f2" stroke-width="1"/><path d="M427.98972,181.10859l-15.98702,-15.98702h-148.71647v31.23046h148.71647l15.98702,-15.24344M431.70763,181.48038v0v0c0,0.74358 -0.37179,1.85896 -1.11537,2.60254l-15.98702,15.24344c-0.74358,0.74358 -1.48716,1.11537 -2.60254,1.11537h-148.71647c-0.74358,0 -1.85896,-0.37179 -2.60254,-1.11537c-0.74358,-0.74358 -1.11537,-1.48716 -1.11537,-2.60254v-31.23046c0,-2.23075 1.48716,-4.0897 3.71791,-4.0897h148.71647c0.74358,0 1.85896,0.37179 2.60254,1.11537l15.98702,15.98702c0.74358,0.74358 1.11537,1.48716 1.11537,2.60254z" fill="#414042" stroke-width="1"/><path d="M263.28622,181.48038v-16.35881h148.71647l15.98702,15.98702l-0.37179,0.37179z" fill="#cccccc" stroke-width="1"/><path d="M207.14575,177.01888c0,-4.46149 3.34612,-7.80761 7.80761,-7.80761c2.23075,0 4.0897,0.74358 5.57687,2.23075c1.48716,1.48716 2.23075,3.34612 2.23075,5.57687v8.92299c0,4.46149 -3.34612,7.80761 -7.80761,7.80761c-2.23075,0 -4.0897,-0.74358 -5.57687,-2.23075c-1.48716,-1.48716 -2.23075,-3.34612 -2.23075,-5.57687z" fill="#cccccc" stroke-width="1"/><path d="M220.53023,185.57008v0v-8.92299c0,-3.34612 -2.60254,-5.94866 -5.94866,-5.94866c-3.34612,0 -5.94866,2.60254 -5.94866,5.94866v0v8.92299c0,3.34612 2.60254,5.94866 5.94866,5.94866c3.34612,0 5.94866,-2.60254 5.94866,-5.94866M224.24815,185.57008c0,5.20508 -4.46149,9.66657 -9.66657,9.66657c-2.60254,0 -4.83329,-1.11537 -6.69224,-2.97433c-1.85896,-1.85896 -2.97433,-4.0897 -2.97433,-6.69224v-8.92299c0,-5.20508 4.46149,-9.66657 9.66657,-9.66657c5.20508,0 9.66657,4.46149 9.66657,9.66657z" fill="#414042" stroke-width="1"/><path d="M188.5495,223.51699v-84.81163h268.09903v84.81163z" fill="none" stroke-width="0"/></g></g></svg>