<svg version="1.1" xmlns="http://www.w3.org/2000/svg" xmlns:xlink="http://www.w3.org/1999/xlink" width="64.05958" height="81.09329" viewBox="0,0,64.05958,81.09329"><g transform="translate(-207.97021,-139.45335)"><g data-paper-data="{&quot;isPaintingLayer&quot;:true}" fill-rule="nonzero" stroke="none" stroke-linecap="butt" stroke-linejoin="miter" stroke-miterlimit="10" stroke-dasharray="" stroke-dashoffset="0" style="mix-blend-mode: normal"><g fill="#ffffff"><path d="M207.97021,182.32616v-24.77436l5.31823,-10.65564l39.9679,-7.4428l18.77345,23.57048l-6.28897,29.95795h-37.54047z" stroke-width="NaN"/><path d="M221.37395,178.19048h28.90342l-6.65977,42.35617l-4.54673,-21.28621l-3.72663,1.76441l-2.42882,-9.31008z" stroke-width="0"/></g><path d="M230.49505,176.47155l-8.06577,-22.70677l10.00139,-2.41553l3.18705,23.88507z" fill="#ff0000" stroke-width="0"/><path d="M231.2,182.3214c0,-2.3196 1.8804,-4.2 4.2,-4.2c2.3196,0 4.2,1.8804 4.2,4.2c0,2.3196 -1.8804,4.2 -4.2,4.2c-2.3196,0 -4.2,-1.8804 -4.2,-4.2z" fill="#ff0000" stroke-width="0"/><path d="M242.4,182.32141c0,-2.31959 1.88041,-4.2 4.2,-4.2c2.31959,0 4.2,1.88041 4.2,4.2c0,2.31959 -1.8804,4.2 -4.2,4.2c-2.31959,0 -4.2,-1.8804 -4.2,-4.2z" fill="#ff0000" stroke-width="0"/><path d="M243.42114,174.50202l-1.3685,-27.51579l11.7458,0.6424l-4.36115,27.20243z" fill="#ff0000" stroke-width="0"/></g></g></svg>